<?xml version="1.0" encoding="UTF-8"?>
<!DOCTYPE svg PUBLIC "-//W3C//DTD SVG 1.1//EN" "http://www.w3.org/Graphics/SVG/1.1/DTD/svg11.dtd">
<svg xmlns="http://www.w3.org/2000/svg" version="1.1" width="500px" height="500px" style="shape-rendering:geometricPrecision; text-rendering:geometricPrecision; image-rendering:optimizeQuality; fill-rule:evenodd; clip-rule:evenodd" xmlns:xlink="http://www.w3.org/1999/xlink">
<g><path style="opacity:1" fill="#134cad" d="M 243.5,160.5 C 242.527,178.12 242.194,195.786 242.5,213.5C 238.5,213.5 234.5,213.5 230.5,213.5C 226.216,178.706 207.216,156.206 173.5,146C 152.851,140.241 132.184,140.074 111.5,145.5C 120.696,138.573 131.029,133.74 142.5,131C 174.85,123.33 204.517,128.997 231.5,148C 235.704,152.036 239.704,156.202 243.5,160.5 Z"/></g>
<g><path style="opacity:1" fill="#144cad" d="M 417.5,369.5 C 434.851,355.459 443.685,337.126 444,314.5C 444.667,280.5 444.667,246.5 444,212.5C 440.542,179.763 423.042,158.596 391.5,149C 384.935,147.154 378.269,145.82 371.5,145C 345.663,144.832 319.997,144.332 294.5,143.5C 294.335,140.15 294.502,136.817 295,133.5C 295.5,132.333 296.333,131.5 297.5,131C 331.167,130.333 364.833,130.333 398.5,131C 417.411,132.962 434.411,139.628 449.5,151C 462.427,163.021 469.927,177.854 472,195.5C 472.667,233.167 472.667,270.833 472,308.5C 467.036,340.631 448.869,360.964 417.5,369.5 Z"/></g>
<g><path style="opacity:1" fill="#fe5857" d="M 230.5,213.5 C 232.023,217.488 231.689,221.321 229.5,225C 221.946,226.432 214.279,226.932 206.5,226.5C 202.087,198.525 187.087,178.359 161.5,166C 140.18,157.596 118.18,155.262 95.5,159C 89.0064,160.372 82.6731,162.206 76.5,164.5C 86.2285,154.799 97.8951,148.466 111.5,145.5C 132.184,140.074 152.851,140.241 173.5,146C 207.216,156.206 226.216,178.706 230.5,213.5 Z"/></g>
<g><path style="opacity:1" fill="#fe5757" d="M 294.5,143.5 C 319.997,144.332 345.663,144.832 371.5,145C 378.269,145.82 384.935,147.154 391.5,149C 423.042,158.596 440.542,179.763 444,212.5C 444.667,246.5 444.667,280.5 444,314.5C 443.685,337.126 434.851,355.459 417.5,369.5C 412.949,372.943 407.949,375.61 402.5,377.5C 413.538,364.23 419.371,348.897 420,331.5C 420.667,295.167 420.667,258.833 420,222.5C 415.218,198.053 401.718,180.22 379.5,169C 368.814,164.77 357.814,161.77 346.5,160C 319.835,159.5 293.169,159.333 266.5,159.5C 266.334,155.154 266.501,150.821 267,146.5C 267.5,146 268,145.5 268.5,145C 277.058,143.559 285.724,143.059 294.5,143.5 Z"/></g>
<g><path style="opacity:1" fill="#fecb05" d="M 206.5,226.5 C 207.778,231.198 207.778,235.865 206.5,240.5C 205.078,240.709 203.745,241.209 202.5,242C 190.505,242.5 178.505,242.667 166.5,242.5C 163.138,242.93 160.305,241.93 158,239.5C 158.387,219.226 148.887,206.559 129.5,201.5C 129.082,200.778 128.416,200.278 127.5,200C 120.42,199.205 113.42,199.372 106.5,200.5C 90.4067,204.762 80.5734,215.096 77,231.5C 76.3333,262.833 76.3333,294.167 77,325.5C 79.2057,344.368 89.3723,356.535 107.5,362C 120.273,365.253 132.273,363.587 143.5,357C 147.334,354.332 150.667,351.165 153.5,347.5C 156.09,342.479 157.757,337.146 158.5,331.5C 158.5,324.5 158.5,317.5 158.5,310.5C 149.833,310.5 141.167,310.5 132.5,310.5C 127.248,309.715 121.915,309.215 116.5,309C 116,308.5 115.5,308 115,307.5C 114.333,295.5 114.333,283.5 115,271.5C 115.5,271 116,270.5 116.5,270C 120.152,269.501 123.818,269.335 127.5,269.5C 128.167,269.5 128.833,269.5 129.5,269.5C 132.167,269.5 134.833,269.5 137.5,269.5C 159.836,269.333 182.169,269.5 204.5,270C 205.333,270.833 206.167,271.667 207,272.5C 208.092,295.233 207.425,317.899 205,340.5C 202.013,356.479 194.846,370.145 183.5,381.5C 167.887,396.127 149.22,403.96 127.5,405C 94.7957,408.437 67.2957,398.27 45,374.5C 35.7627,362.353 30.0961,348.687 28,333.5C 27.3333,298.833 27.3333,264.167 28,229.5C 32.2536,198.771 48.4203,177.104 76.5,164.5C 82.6731,162.206 89.0064,160.372 95.5,159C 118.18,155.262 140.18,157.596 161.5,166C 187.087,178.359 202.087,198.525 206.5,226.5 Z M 132.5,310.5 C 141.167,310.5 149.833,310.5 158.5,310.5C 158.5,317.5 158.5,324.5 158.5,331.5C 146.276,328.946 137.609,321.946 132.5,310.5 Z"/></g>
<g><path style="opacity:1" fill="#fecb03" d="M 266.5,159.5 C 293.169,159.333 319.835,159.5 346.5,160C 357.814,161.77 368.814,164.77 379.5,169C 401.718,180.22 415.218,198.053 420,222.5C 420.667,258.833 420.667,295.167 420,331.5C 419.371,348.897 413.538,364.23 402.5,377.5C 389.376,390.062 373.709,397.896 355.5,401C 318.86,402.614 282.193,402.947 245.5,402C 244.333,401.5 243.5,400.667 243,399.5C 242.832,381.662 242.332,363.995 241.5,346.5C 242.829,311.069 242.829,275.736 241.5,240.5C 242.471,231.584 242.804,222.584 242.5,213.5C 242.194,195.786 242.527,178.12 243.5,160.5C 251.111,159.566 258.778,159.233 266.5,159.5 Z M 343.5,203.5 C 358.15,206.651 366.983,215.651 370,230.5C 371.584,260.81 371.917,291.143 371,321.5C 370.661,324.88 370.161,328.213 369.5,331.5C 360.915,331.817 352.415,331.483 344,330.5C 343.5,288.168 343.333,245.835 343.5,203.5 Z"/></g>
<g><path style="opacity:1" fill="#0d4bac" d="M 129.5,201.5 C 129.425,204.206 129.092,206.873 128.5,209.5C 127.503,229.326 127.17,249.326 127.5,269.5C 123.818,269.335 120.152,269.501 116.5,270C 116,270.5 115.5,271 115,271.5C 114.333,283.5 114.333,295.5 115,307.5C 115.5,308 116,308.5 116.5,309C 121.915,309.215 127.248,309.715 132.5,310.5C 137.609,321.946 146.276,328.946 158.5,331.5C 157.757,337.146 156.09,342.479 153.5,347.5C 127.123,350.913 109.623,340.246 101,315.5C 100.333,282.167 100.333,248.833 101,215.5C 102.284,210.272 104.117,205.272 106.5,200.5C 113.42,199.372 120.42,199.205 127.5,200C 128.416,200.278 129.082,200.778 129.5,201.5 Z"/></g>
<g><path style="opacity:1" fill="#fd5757" d="M 106.5,200.5 C 104.117,205.272 102.284,210.272 101,215.5C 100.333,248.833 100.333,282.167 101,315.5C 109.623,340.246 127.123,350.913 153.5,347.5C 150.667,351.165 147.334,354.332 143.5,357C 132.273,363.587 120.273,365.253 107.5,362C 89.3723,356.535 79.2057,344.368 77,325.5C 76.3333,294.167 76.3333,262.833 77,231.5C 80.5734,215.096 90.4067,204.762 106.5,200.5 Z"/></g>
<g><path style="opacity:1" fill="#fe5856" d="M 315.5,201.5 C 315.5,249.167 315.5,296.833 315.5,344.5C 331.833,344.5 348.167,344.5 364.5,344.5C 359.027,353.455 351.027,358.621 340.5,360C 324.259,360.824 308.093,360.658 292,359.5C 291.333,307.167 291.333,254.833 292,202.5C 299.747,201.518 307.58,201.185 315.5,201.5 Z"/></g>
<g><path style="opacity:0.999" fill="#034aac" d="M 315.5,201.5 C 322.841,201.334 330.174,201.5 337.5,202C 339.708,202.191 341.708,202.691 343.5,203.5C 343.333,245.835 343.5,288.168 344,330.5C 352.415,331.483 360.915,331.817 369.5,331.5C 369.193,336.43 367.527,340.763 364.5,344.5C 348.167,344.5 331.833,344.5 315.5,344.5C 315.5,296.833 315.5,249.167 315.5,201.5 Z"/></g>
<g><path style="opacity:0.665" fill="#4f7fc1" d="M 128.5,209.5 C 128.179,229.576 128.513,249.576 129.5,269.5C 128.833,269.5 128.167,269.5 127.5,269.5C 127.17,249.326 127.503,229.326 128.5,209.5 Z"/></g>
<g><path style="opacity:1" fill="#194cac" d="M 206.5,240.5 C 218.167,240.5 229.833,240.5 241.5,240.5C 242.829,275.736 242.829,311.069 241.5,346.5C 230.4,359.551 216.4,368.218 199.5,372.5C 217.437,358.639 227.604,340.305 230,317.5C 230.667,297.167 230.667,276.833 230,256.5C 229.5,255.333 228.667,254.5 227.5,254C 206.836,253.5 186.169,253.333 165.5,253.5C 165.323,249.766 165.656,246.099 166.5,242.5C 178.505,242.667 190.505,242.5 202.5,242C 203.745,241.209 205.078,240.709 206.5,240.5 Z"/></g>
<g><path style="opacity:1" fill="#fd5858" d="M 165.5,253.5 C 186.169,253.333 206.836,253.5 227.5,254C 228.667,254.5 229.5,255.333 230,256.5C 230.667,276.833 230.667,297.167 230,317.5C 227.604,340.305 217.437,358.639 199.5,372.5C 194.662,376.329 189.328,379.329 183.5,381.5C 194.846,370.145 202.013,356.479 205,340.5C 207.425,317.899 208.092,295.233 207,272.5C 206.167,271.667 205.333,270.833 204.5,270C 182.169,269.5 159.836,269.333 137.5,269.5C 137.335,265.818 137.501,262.152 138,258.5C 138.273,256.671 139.107,255.171 140.5,254C 148.827,253.5 157.16,253.334 165.5,253.5 Z"/></g>
</svg>
